%TF.GenerationSoftware,KiCad,Pcbnew,(5.1.9)-1*%
%TF.CreationDate,2021-03-23T19:31:55+05:30*%
%TF.ProjectId,automatic traffic signal,6175746f-6d61-4746-9963-207472616666,rev?*%
%TF.SameCoordinates,Original*%
%TF.FileFunction,Legend,Top*%
%TF.FilePolarity,Positive*%
%FSLAX46Y46*%
G04 Gerber Fmt 4.6, Leading zero omitted, Abs format (unit mm)*
G04 Created by KiCad (PCBNEW (5.1.9)-1) date 2021-03-23 19:31:55*
%MOMM*%
%LPD*%
G01*
G04 APERTURE LIST*
%ADD10C,0.120000*%
%ADD11C,0.150000*%
G04 APERTURE END LIST*
D10*
%TO.C,VCC1*%
X125790000Y-88840000D02*
X123130000Y-88840000D01*
X125790000Y-91440000D02*
X125790000Y-88840000D01*
X123130000Y-91440000D02*
X123130000Y-88840000D01*
X125790000Y-91440000D02*
X123130000Y-91440000D01*
X125790000Y-92710000D02*
X125790000Y-94040000D01*
X125790000Y-94040000D02*
X124460000Y-94040000D01*
%TO.C,U1*%
X132655001Y-79035001D02*
X131005001Y-79035001D01*
X131005001Y-79035001D02*
X131005001Y-89315001D01*
X131005001Y-89315001D02*
X136305001Y-89315001D01*
X136305001Y-89315001D02*
X136305001Y-79035001D01*
X136305001Y-79035001D02*
X134655001Y-79035001D01*
X128515001Y-78975001D02*
X128515001Y-89375001D01*
X128515001Y-89375001D02*
X138795001Y-89375001D01*
X138795001Y-89375001D02*
X138795001Y-78975001D01*
X138795001Y-78975001D02*
X128515001Y-78975001D01*
X134655001Y-79035001D02*
G75*
G02*
X132655001Y-79035001I-1000000J0D01*
G01*
%TO.C,R3*%
X141320000Y-84470000D02*
X141320000Y-80630000D01*
X143160000Y-84470000D02*
X143160000Y-80630000D01*
%TO.C,R2*%
X123540000Y-84470000D02*
X123540000Y-80630000D01*
X125380000Y-84470000D02*
X125380000Y-80630000D01*
%TO.C,R1*%
X144630000Y-88020000D02*
X141580000Y-88020000D01*
X144630000Y-92320000D02*
X141580000Y-92320000D01*
X141535487Y-88051751D02*
G75*
G03*
X141580000Y-92320000I1544513J-2118249D01*
G01*
X144608234Y-92335526D02*
G75*
G03*
X144630000Y-88020000I-1528234J2165526D01*
G01*
%TO.C,D2*%
X129250000Y-72424000D02*
X129250000Y-72580000D01*
X129250000Y-74740000D02*
X129250000Y-74896000D01*
X131851130Y-74739837D02*
G75*
G02*
X129769039Y-74740000I-1041130J1079837D01*
G01*
X131851130Y-72580163D02*
G75*
G03*
X129769039Y-72580000I-1041130J-1079837D01*
G01*
X132482335Y-74738608D02*
G75*
G02*
X129250000Y-74895516I-1672335J1078608D01*
G01*
X132482335Y-72581392D02*
G75*
G03*
X129250000Y-72424484I-1672335J-1078608D01*
G01*
%TO.C,D1*%
X135600000Y-72424000D02*
X135600000Y-72580000D01*
X135600000Y-74740000D02*
X135600000Y-74896000D01*
X138201130Y-74739837D02*
G75*
G02*
X136119039Y-74740000I-1041130J1079837D01*
G01*
X138201130Y-72580163D02*
G75*
G03*
X136119039Y-72580000I-1041130J-1079837D01*
G01*
X138832335Y-74738608D02*
G75*
G02*
X135600000Y-74895516I-1672335J1078608D01*
G01*
X138832335Y-72581392D02*
G75*
G03*
X135600000Y-72424484I-1672335J-1078608D01*
G01*
%TO.C,VCC1*%
D11*
X122650476Y-94492380D02*
X122983809Y-95492380D01*
X123317142Y-94492380D01*
X124221904Y-95397142D02*
X124174285Y-95444761D01*
X124031428Y-95492380D01*
X123936190Y-95492380D01*
X123793333Y-95444761D01*
X123698095Y-95349523D01*
X123650476Y-95254285D01*
X123602857Y-95063809D01*
X123602857Y-94920952D01*
X123650476Y-94730476D01*
X123698095Y-94635238D01*
X123793333Y-94540000D01*
X123936190Y-94492380D01*
X124031428Y-94492380D01*
X124174285Y-94540000D01*
X124221904Y-94587619D01*
X125221904Y-95397142D02*
X125174285Y-95444761D01*
X125031428Y-95492380D01*
X124936190Y-95492380D01*
X124793333Y-95444761D01*
X124698095Y-95349523D01*
X124650476Y-95254285D01*
X124602857Y-95063809D01*
X124602857Y-94920952D01*
X124650476Y-94730476D01*
X124698095Y-94635238D01*
X124793333Y-94540000D01*
X124936190Y-94492380D01*
X125031428Y-94492380D01*
X125174285Y-94540000D01*
X125221904Y-94587619D01*
X126174285Y-95492380D02*
X125602857Y-95492380D01*
X125888571Y-95492380D02*
X125888571Y-94492380D01*
X125793333Y-94635238D01*
X125698095Y-94730476D01*
X125602857Y-94778095D01*
%TO.C,U1*%
X132893096Y-77487381D02*
X132893096Y-78296905D01*
X132940715Y-78392143D01*
X132988334Y-78439762D01*
X133083572Y-78487381D01*
X133274048Y-78487381D01*
X133369286Y-78439762D01*
X133416905Y-78392143D01*
X133464524Y-78296905D01*
X133464524Y-77487381D01*
X134464524Y-78487381D02*
X133893096Y-78487381D01*
X134178810Y-78487381D02*
X134178810Y-77487381D01*
X134083572Y-77630239D01*
X133988334Y-77725477D01*
X133893096Y-77773096D01*
%TO.C,R3*%
X140772380Y-82716666D02*
X140296190Y-83050000D01*
X140772380Y-83288095D02*
X139772380Y-83288095D01*
X139772380Y-82907142D01*
X139820000Y-82811904D01*
X139867619Y-82764285D01*
X139962857Y-82716666D01*
X140105714Y-82716666D01*
X140200952Y-82764285D01*
X140248571Y-82811904D01*
X140296190Y-82907142D01*
X140296190Y-83288095D01*
X139772380Y-82383333D02*
X139772380Y-81764285D01*
X140153333Y-82097619D01*
X140153333Y-81954761D01*
X140200952Y-81859523D01*
X140248571Y-81811904D01*
X140343809Y-81764285D01*
X140581904Y-81764285D01*
X140677142Y-81811904D01*
X140724761Y-81859523D01*
X140772380Y-81954761D01*
X140772380Y-82240476D01*
X140724761Y-82335714D01*
X140677142Y-82383333D01*
%TO.C,R2*%
X122992380Y-82716666D02*
X122516190Y-83050000D01*
X122992380Y-83288095D02*
X121992380Y-83288095D01*
X121992380Y-82907142D01*
X122040000Y-82811904D01*
X122087619Y-82764285D01*
X122182857Y-82716666D01*
X122325714Y-82716666D01*
X122420952Y-82764285D01*
X122468571Y-82811904D01*
X122516190Y-82907142D01*
X122516190Y-83288095D01*
X122087619Y-82335714D02*
X122040000Y-82288095D01*
X121992380Y-82192857D01*
X121992380Y-81954761D01*
X122040000Y-81859523D01*
X122087619Y-81811904D01*
X122182857Y-81764285D01*
X122278095Y-81764285D01*
X122420952Y-81811904D01*
X122992380Y-82383333D01*
X122992380Y-81764285D01*
%TO.C,R1*%
X142913333Y-93522380D02*
X142580000Y-93046190D01*
X142341904Y-93522380D02*
X142341904Y-92522380D01*
X142722857Y-92522380D01*
X142818095Y-92570000D01*
X142865714Y-92617619D01*
X142913333Y-92712857D01*
X142913333Y-92855714D01*
X142865714Y-92950952D01*
X142818095Y-92998571D01*
X142722857Y-93046190D01*
X142341904Y-93046190D01*
X143865714Y-93522380D02*
X143294285Y-93522380D01*
X143580000Y-93522380D02*
X143580000Y-92522380D01*
X143484761Y-92665238D01*
X143389523Y-92760476D01*
X143294285Y-92808095D01*
%TO.C,D2*%
X130071904Y-71152380D02*
X130071904Y-70152380D01*
X130310000Y-70152380D01*
X130452857Y-70200000D01*
X130548095Y-70295238D01*
X130595714Y-70390476D01*
X130643333Y-70580952D01*
X130643333Y-70723809D01*
X130595714Y-70914285D01*
X130548095Y-71009523D01*
X130452857Y-71104761D01*
X130310000Y-71152380D01*
X130071904Y-71152380D01*
X131024285Y-70247619D02*
X131071904Y-70200000D01*
X131167142Y-70152380D01*
X131405238Y-70152380D01*
X131500476Y-70200000D01*
X131548095Y-70247619D01*
X131595714Y-70342857D01*
X131595714Y-70438095D01*
X131548095Y-70580952D01*
X130976666Y-71152380D01*
X131595714Y-71152380D01*
%TO.C,D1*%
X136421904Y-71152380D02*
X136421904Y-70152380D01*
X136660000Y-70152380D01*
X136802857Y-70200000D01*
X136898095Y-70295238D01*
X136945714Y-70390476D01*
X136993333Y-70580952D01*
X136993333Y-70723809D01*
X136945714Y-70914285D01*
X136898095Y-71009523D01*
X136802857Y-71104761D01*
X136660000Y-71152380D01*
X136421904Y-71152380D01*
X137945714Y-71152380D02*
X137374285Y-71152380D01*
X137660000Y-71152380D02*
X137660000Y-70152380D01*
X137564761Y-70295238D01*
X137469523Y-70390476D01*
X137374285Y-70438095D01*
%TD*%
M02*
