%TF.GenerationSoftware,KiCad,Pcbnew,(5.1.9)-1*%
%TF.CreationDate,2021-03-23T19:31:55+05:30*%
%TF.ProjectId,automatic traffic signal,6175746f-6d61-4746-9963-207472616666,rev?*%
%TF.SameCoordinates,Original*%
%TF.FileFunction,Copper,L1,Top*%
%TF.FilePolarity,Positive*%
%FSLAX46Y46*%
G04 Gerber Fmt 4.6, Leading zero omitted, Abs format (unit mm)*
G04 Created by KiCad (PCBNEW (5.1.9)-1) date 2021-03-23 19:31:55*
%MOMM*%
%LPD*%
G01*
G04 APERTURE LIST*
%TA.AperFunction,ComponentPad*%
%ADD10O,1.700000X1.700000*%
%TD*%
%TA.AperFunction,ComponentPad*%
%ADD11R,1.700000X1.700000*%
%TD*%
%TA.AperFunction,ComponentPad*%
%ADD12O,1.600000X1.600000*%
%TD*%
%TA.AperFunction,ComponentPad*%
%ADD13R,1.600000X1.600000*%
%TD*%
%TA.AperFunction,ComponentPad*%
%ADD14O,1.400000X1.400000*%
%TD*%
%TA.AperFunction,ComponentPad*%
%ADD15C,1.400000*%
%TD*%
%TA.AperFunction,ComponentPad*%
%ADD16C,1.500000*%
%TD*%
%TA.AperFunction,ComponentPad*%
%ADD17C,1.800000*%
%TD*%
%TA.AperFunction,ComponentPad*%
%ADD18R,1.800000X1.800000*%
%TD*%
%TA.AperFunction,Conductor*%
%ADD19C,0.500000*%
%TD*%
G04 APERTURE END LIST*
D10*
%TO.P,VCC1,2*%
%TO.N,Net-(D2-Pad1)*%
X124460000Y-90170000D03*
D11*
%TO.P,VCC1,1*%
%TO.N,Net-(R1-Pad1)*%
X124460000Y-92710000D03*
%TD*%
D12*
%TO.P,U1,8*%
%TO.N,Net-(R1-Pad1)*%
X137465001Y-80365001D03*
%TO.P,U1,4*%
X129845001Y-87985001D03*
%TO.P,U1,7*%
%TO.N,Net-(U1-Pad7)*%
X137465001Y-82905001D03*
%TO.P,U1,3*%
%TO.N,Net-(D1-Pad1)*%
X129845001Y-85445001D03*
%TO.P,U1,6*%
%TO.N,Net-(R1-Pad1)*%
X137465001Y-85445001D03*
%TO.P,U1,2*%
%TO.N,Net-(R1-Pad2)*%
X129845001Y-82905001D03*
%TO.P,U1,5*%
%TO.N,Net-(U1-Pad5)*%
X137465001Y-87985001D03*
D13*
%TO.P,U1,1*%
%TO.N,Net-(D2-Pad1)*%
X129845001Y-80365001D03*
%TD*%
D14*
%TO.P,R3,2*%
%TO.N,Net-(D1-Pad2)*%
X142240000Y-80010000D03*
D15*
%TO.P,R3,1*%
%TO.N,Net-(R1-Pad1)*%
X142240000Y-85090000D03*
%TD*%
D14*
%TO.P,R2,2*%
%TO.N,Net-(D2-Pad1)*%
X124460000Y-80010000D03*
D15*
%TO.P,R2,1*%
%TO.N,Net-(R1-Pad2)*%
X124460000Y-85090000D03*
%TD*%
D16*
%TO.P,R1,2*%
%TO.N,Net-(R1-Pad2)*%
X141380000Y-90170000D03*
%TO.P,R1,1*%
%TO.N,Net-(R1-Pad1)*%
X144780000Y-90170000D03*
%TD*%
D17*
%TO.P,D2,2*%
%TO.N,Net-(D1-Pad1)*%
X132080000Y-73660000D03*
D18*
%TO.P,D2,1*%
%TO.N,Net-(D2-Pad1)*%
X129540000Y-73660000D03*
%TD*%
D17*
%TO.P,D1,2*%
%TO.N,Net-(D1-Pad2)*%
X138430000Y-73660000D03*
D18*
%TO.P,D1,1*%
%TO.N,Net-(D1-Pad1)*%
X135890000Y-73660000D03*
%TD*%
D19*
%TO.N,Net-(D1-Pad2)*%
X138430000Y-73660000D02*
X142240000Y-77470000D01*
X142240000Y-77470000D02*
X142240000Y-80010000D01*
%TO.N,Net-(D1-Pad1)*%
X129845001Y-85445001D02*
X134620000Y-80670002D01*
X134620000Y-76200000D02*
X132080000Y-73660000D01*
X134620000Y-80670002D02*
X134620000Y-76200000D01*
X135890000Y-73660000D02*
X132080000Y-73660000D01*
%TO.N,Net-(D2-Pad1)*%
X129490000Y-80010000D02*
X129845001Y-80365001D01*
X124460000Y-80010000D02*
X129490000Y-80010000D01*
X121920000Y-80010000D02*
X124460000Y-80010000D01*
X121920000Y-88900000D02*
X121920000Y-80010000D01*
X123190000Y-90170000D02*
X121920000Y-88900000D01*
X124460000Y-90170000D02*
X123190000Y-90170000D01*
X124460000Y-74930000D02*
X124460000Y-80010000D01*
X125730000Y-73660000D02*
X124460000Y-74930000D01*
X129540000Y-73660000D02*
X125730000Y-73660000D01*
%TO.N,Net-(R1-Pad2)*%
X126644999Y-82905001D02*
X129845001Y-82905001D01*
X124460000Y-85090000D02*
X126644999Y-82905001D01*
X130780004Y-86360000D02*
X130445002Y-86695002D01*
X126065002Y-86695002D02*
X124460000Y-85090000D01*
X130810000Y-86360000D02*
X130780004Y-86360000D01*
X132080000Y-87630000D02*
X130810000Y-86360000D01*
X132080000Y-88900000D02*
X132080000Y-87630000D01*
X130445002Y-86695002D02*
X126065002Y-86695002D01*
X133350000Y-90170000D02*
X132080000Y-88900000D01*
X141380000Y-90170000D02*
X133350000Y-90170000D01*
%TO.N,Net-(R1-Pad1)*%
X142240000Y-87630000D02*
X144780000Y-90170000D01*
X142240000Y-85090000D02*
X142240000Y-87630000D01*
X124460000Y-92710000D02*
X125120002Y-92710000D01*
X128270000Y-92710000D02*
X129845001Y-91134999D01*
X129845001Y-91134999D02*
X129845001Y-87985001D01*
X124460000Y-92710000D02*
X128270000Y-92710000D01*
X146050000Y-93980000D02*
X132690002Y-93980000D01*
X147320000Y-92710000D02*
X146050000Y-93980000D01*
X147320000Y-87630000D02*
X147320000Y-92710000D01*
X132690002Y-93980000D02*
X129845001Y-91134999D01*
X144780000Y-85090000D02*
X147320000Y-87630000D01*
X142240000Y-85090000D02*
X144780000Y-85090000D01*
X137820002Y-85090000D02*
X137465001Y-85445001D01*
X142240000Y-85090000D02*
X137820002Y-85090000D01*
X137465001Y-85445001D02*
X135890000Y-83870000D01*
X135890000Y-81940002D02*
X137465001Y-80365001D01*
X135890000Y-83870000D02*
X135890000Y-81940002D01*
%TD*%
M02*
