%TF.GenerationSoftware,KiCad,Pcbnew,(5.1.9)-1*%
%TF.CreationDate,2021-03-23T19:31:55+05:30*%
%TF.ProjectId,automatic traffic signal,6175746f-6d61-4746-9963-207472616666,rev?*%
%TF.SameCoordinates,Original*%
%TF.FileFunction,Other,Fab,Top*%
%FSLAX46Y46*%
G04 Gerber Fmt 4.6, Leading zero omitted, Abs format (unit mm)*
G04 Created by KiCad (PCBNEW (5.1.9)-1) date 2021-03-23 19:31:55*
%MOMM*%
%LPD*%
G01*
G04 APERTURE LIST*
%ADD10C,0.100000*%
%ADD11C,0.150000*%
%ADD12C,0.108000*%
G04 APERTURE END LIST*
D10*
%TO.C,VCC1*%
X125095000Y-93980000D02*
X123190000Y-93980000D01*
X123190000Y-93980000D02*
X123190000Y-88900000D01*
X123190000Y-88900000D02*
X125730000Y-88900000D01*
X125730000Y-88900000D02*
X125730000Y-93345000D01*
X125730000Y-93345000D02*
X125095000Y-93980000D01*
%TO.C,U1*%
X131480001Y-79095001D02*
X136830001Y-79095001D01*
X136830001Y-79095001D02*
X136830001Y-89255001D01*
X136830001Y-89255001D02*
X130480001Y-89255001D01*
X130480001Y-89255001D02*
X130480001Y-80095001D01*
X130480001Y-80095001D02*
X131480001Y-79095001D01*
X128575001Y-79035001D02*
X128575001Y-89315001D01*
X128575001Y-89315001D02*
X138735001Y-89315001D01*
X138735001Y-89315001D02*
X138735001Y-79035001D01*
X138735001Y-79035001D02*
X128575001Y-79035001D01*
%TO.C,R3*%
X141440000Y-84350000D02*
X143040000Y-84350000D01*
X143040000Y-84350000D02*
X143040000Y-80750000D01*
X143040000Y-80750000D02*
X141440000Y-80750000D01*
X141440000Y-80750000D02*
X141440000Y-84350000D01*
X142240000Y-85090000D02*
X142240000Y-84350000D01*
X142240000Y-80010000D02*
X142240000Y-80750000D01*
%TO.C,R2*%
X123660000Y-84350000D02*
X125260000Y-84350000D01*
X125260000Y-84350000D02*
X125260000Y-80750000D01*
X125260000Y-80750000D02*
X123660000Y-80750000D01*
X123660000Y-80750000D02*
X123660000Y-84350000D01*
X124460000Y-85090000D02*
X124460000Y-84350000D01*
X124460000Y-80010000D02*
X124460000Y-80750000D01*
%TO.C,R1*%
X143780000Y-90170000D02*
X142480000Y-90170000D01*
X142480000Y-90170000D02*
X142480000Y-90770000D01*
X142480000Y-90770000D02*
X143980000Y-90770000D01*
X142180000Y-89570000D02*
X143780000Y-89570000D01*
X143980000Y-91970000D02*
X142180000Y-91970000D01*
X142180000Y-91970000D02*
X142180000Y-91370000D01*
X142180000Y-91370000D02*
X143980000Y-91370000D01*
X143980000Y-91370000D02*
X143980000Y-90770000D01*
X143780000Y-90170000D02*
X143780000Y-89570000D01*
X142180000Y-89570000D02*
X142180000Y-88970000D01*
X142180000Y-88970000D02*
X143980000Y-88970000D01*
X143980000Y-88970000D02*
X143980000Y-88370000D01*
X143980000Y-88370000D02*
X142180000Y-88370000D01*
X141580000Y-88070000D02*
X144580000Y-88070000D01*
X144580000Y-92270000D02*
X141580000Y-92270000D01*
X144577237Y-92271971D02*
G75*
G03*
X144580000Y-88070000I-1497237J2101971D01*
G01*
X141582763Y-88068029D02*
G75*
G03*
X141580000Y-92270000I1497237J-2101971D01*
G01*
%TO.C,D2*%
X132310000Y-73660000D02*
G75*
G03*
X132310000Y-73660000I-1500000J0D01*
G01*
X129310000Y-72493810D02*
X129310000Y-74826190D01*
X129309445Y-74825476D02*
G75*
G03*
X129310000Y-72493810I1500555J1165476D01*
G01*
%TO.C,D1*%
X138660000Y-73660000D02*
G75*
G03*
X138660000Y-73660000I-1500000J0D01*
G01*
X135660000Y-72493810D02*
X135660000Y-74826190D01*
X135659445Y-74825476D02*
G75*
G03*
X135660000Y-72493810I1500555J1165476D01*
G01*
%TD*%
%TO.C,VCC1*%
D11*
X122840952Y-88292380D02*
X122840952Y-87292380D01*
X123079047Y-87292380D01*
X123221904Y-87340000D01*
X123317142Y-87435238D01*
X123364761Y-87530476D01*
X123412380Y-87720952D01*
X123412380Y-87863809D01*
X123364761Y-88054285D01*
X123317142Y-88149523D01*
X123221904Y-88244761D01*
X123079047Y-88292380D01*
X122840952Y-88292380D01*
X124412380Y-88197142D02*
X124364761Y-88244761D01*
X124221904Y-88292380D01*
X124126666Y-88292380D01*
X123983809Y-88244761D01*
X123888571Y-88149523D01*
X123840952Y-88054285D01*
X123793333Y-87863809D01*
X123793333Y-87720952D01*
X123840952Y-87530476D01*
X123888571Y-87435238D01*
X123983809Y-87340000D01*
X124126666Y-87292380D01*
X124221904Y-87292380D01*
X124364761Y-87340000D01*
X124412380Y-87387619D01*
X125650476Y-88292380D02*
X125840952Y-88292380D01*
X125936190Y-88244761D01*
X125983809Y-88197142D01*
X126079047Y-88054285D01*
X126126666Y-87863809D01*
X126126666Y-87482857D01*
X126079047Y-87387619D01*
X126031428Y-87340000D01*
X125936190Y-87292380D01*
X125745714Y-87292380D01*
X125650476Y-87340000D01*
X125602857Y-87387619D01*
X125555238Y-87482857D01*
X125555238Y-87720952D01*
X125602857Y-87816190D01*
X125650476Y-87863809D01*
X125745714Y-87911428D01*
X125936190Y-87911428D01*
X126031428Y-87863809D01*
X126079047Y-87816190D01*
X126126666Y-87720952D01*
X123912380Y-93249523D02*
X124912380Y-92916190D01*
X123912380Y-92582857D01*
X124817142Y-91678095D02*
X124864761Y-91725714D01*
X124912380Y-91868571D01*
X124912380Y-91963809D01*
X124864761Y-92106666D01*
X124769523Y-92201904D01*
X124674285Y-92249523D01*
X124483809Y-92297142D01*
X124340952Y-92297142D01*
X124150476Y-92249523D01*
X124055238Y-92201904D01*
X123960000Y-92106666D01*
X123912380Y-91963809D01*
X123912380Y-91868571D01*
X123960000Y-91725714D01*
X124007619Y-91678095D01*
X124817142Y-90678095D02*
X124864761Y-90725714D01*
X124912380Y-90868571D01*
X124912380Y-90963809D01*
X124864761Y-91106666D01*
X124769523Y-91201904D01*
X124674285Y-91249523D01*
X124483809Y-91297142D01*
X124340952Y-91297142D01*
X124150476Y-91249523D01*
X124055238Y-91201904D01*
X123960000Y-91106666D01*
X123912380Y-90963809D01*
X123912380Y-90868571D01*
X123960000Y-90725714D01*
X124007619Y-90678095D01*
X124912380Y-89725714D02*
X124912380Y-90297142D01*
X124912380Y-90011428D02*
X123912380Y-90011428D01*
X124055238Y-90106666D01*
X124150476Y-90201904D01*
X124198095Y-90297142D01*
%TO.C,U1*%
X131964524Y-90767381D02*
X131488334Y-90767381D01*
X131488334Y-89767381D01*
X132297858Y-90767381D02*
X132297858Y-89767381D01*
X132631191Y-90481667D01*
X132964524Y-89767381D01*
X132964524Y-90767381D01*
X133916905Y-89767381D02*
X133440715Y-89767381D01*
X133393096Y-90243572D01*
X133440715Y-90195953D01*
X133535953Y-90148334D01*
X133774048Y-90148334D01*
X133869286Y-90195953D01*
X133916905Y-90243572D01*
X133964524Y-90338810D01*
X133964524Y-90576905D01*
X133916905Y-90672143D01*
X133869286Y-90719762D01*
X133774048Y-90767381D01*
X133535953Y-90767381D01*
X133440715Y-90719762D01*
X133393096Y-90672143D01*
X134869286Y-89767381D02*
X134393096Y-89767381D01*
X134345477Y-90243572D01*
X134393096Y-90195953D01*
X134488334Y-90148334D01*
X134726429Y-90148334D01*
X134821667Y-90195953D01*
X134869286Y-90243572D01*
X134916905Y-90338810D01*
X134916905Y-90576905D01*
X134869286Y-90672143D01*
X134821667Y-90719762D01*
X134726429Y-90767381D01*
X134488334Y-90767381D01*
X134393096Y-90719762D01*
X134345477Y-90672143D01*
X135821667Y-89767381D02*
X135345477Y-89767381D01*
X135297858Y-90243572D01*
X135345477Y-90195953D01*
X135440715Y-90148334D01*
X135678810Y-90148334D01*
X135774048Y-90195953D01*
X135821667Y-90243572D01*
X135869286Y-90338810D01*
X135869286Y-90576905D01*
X135821667Y-90672143D01*
X135774048Y-90719762D01*
X135678810Y-90767381D01*
X135440715Y-90767381D01*
X135345477Y-90719762D01*
X135297858Y-90672143D01*
X132893096Y-83627381D02*
X132893096Y-84436905D01*
X132940715Y-84532143D01*
X132988334Y-84579762D01*
X133083572Y-84627381D01*
X133274048Y-84627381D01*
X133369286Y-84579762D01*
X133416905Y-84532143D01*
X133464524Y-84436905D01*
X133464524Y-83627381D01*
X134464524Y-84627381D02*
X133893096Y-84627381D01*
X134178810Y-84627381D02*
X134178810Y-83627381D01*
X134083572Y-83770239D01*
X133988334Y-83865477D01*
X133893096Y-83913096D01*
%TO.C,R3*%
X143612380Y-84288095D02*
X143612380Y-83669047D01*
X143993333Y-84002380D01*
X143993333Y-83859523D01*
X144040952Y-83764285D01*
X144088571Y-83716666D01*
X144183809Y-83669047D01*
X144421904Y-83669047D01*
X144517142Y-83716666D01*
X144564761Y-83764285D01*
X144612380Y-83859523D01*
X144612380Y-84145238D01*
X144564761Y-84240476D01*
X144517142Y-84288095D01*
X143612380Y-83335714D02*
X143612380Y-82716666D01*
X143993333Y-83050000D01*
X143993333Y-82907142D01*
X144040952Y-82811904D01*
X144088571Y-82764285D01*
X144183809Y-82716666D01*
X144421904Y-82716666D01*
X144517142Y-82764285D01*
X144564761Y-82811904D01*
X144612380Y-82907142D01*
X144612380Y-83192857D01*
X144564761Y-83288095D01*
X144517142Y-83335714D01*
X143612380Y-82097619D02*
X143612380Y-82002380D01*
X143660000Y-81907142D01*
X143707619Y-81859523D01*
X143802857Y-81811904D01*
X143993333Y-81764285D01*
X144231428Y-81764285D01*
X144421904Y-81811904D01*
X144517142Y-81859523D01*
X144564761Y-81907142D01*
X144612380Y-82002380D01*
X144612380Y-82097619D01*
X144564761Y-82192857D01*
X144517142Y-82240476D01*
X144421904Y-82288095D01*
X144231428Y-82335714D01*
X143993333Y-82335714D01*
X143802857Y-82288095D01*
X143707619Y-82240476D01*
X143660000Y-82192857D01*
X143612380Y-82097619D01*
X144088571Y-81335714D02*
X144088571Y-81002380D01*
X144612380Y-80859523D02*
X144612380Y-81335714D01*
X143612380Y-81335714D01*
X143612380Y-80859523D01*
D12*
X142565714Y-82670000D02*
X142222857Y-82910000D01*
X142565714Y-83081428D02*
X141845714Y-83081428D01*
X141845714Y-82807142D01*
X141880000Y-82738571D01*
X141914285Y-82704285D01*
X141982857Y-82670000D01*
X142085714Y-82670000D01*
X142154285Y-82704285D01*
X142188571Y-82738571D01*
X142222857Y-82807142D01*
X142222857Y-83081428D01*
X141845714Y-82430000D02*
X141845714Y-81984285D01*
X142120000Y-82224285D01*
X142120000Y-82121428D01*
X142154285Y-82052857D01*
X142188571Y-82018571D01*
X142257142Y-81984285D01*
X142428571Y-81984285D01*
X142497142Y-82018571D01*
X142531428Y-82052857D01*
X142565714Y-82121428D01*
X142565714Y-82327142D01*
X142531428Y-82395714D01*
X142497142Y-82430000D01*
%TO.C,R2*%
D11*
X126165714Y-83335714D02*
X126832380Y-83335714D01*
X125784761Y-83573809D02*
X126499047Y-83811904D01*
X126499047Y-83192857D01*
X125832380Y-82907142D02*
X125832380Y-82240476D01*
X126832380Y-82669047D01*
X126832380Y-81859523D02*
X125832380Y-81859523D01*
X126832380Y-81288095D02*
X126260952Y-81716666D01*
X125832380Y-81288095D02*
X126403809Y-81859523D01*
D12*
X124785714Y-82670000D02*
X124442857Y-82910000D01*
X124785714Y-83081428D02*
X124065714Y-83081428D01*
X124065714Y-82807142D01*
X124100000Y-82738571D01*
X124134285Y-82704285D01*
X124202857Y-82670000D01*
X124305714Y-82670000D01*
X124374285Y-82704285D01*
X124408571Y-82738571D01*
X124442857Y-82807142D01*
X124442857Y-83081428D01*
X124134285Y-82395714D02*
X124100000Y-82361428D01*
X124065714Y-82292857D01*
X124065714Y-82121428D01*
X124100000Y-82052857D01*
X124134285Y-82018571D01*
X124202857Y-81984285D01*
X124271428Y-81984285D01*
X124374285Y-82018571D01*
X124785714Y-82430000D01*
X124785714Y-81984285D01*
%TO.C,R1*%
D11*
X141637142Y-87622380D02*
X141160952Y-87622380D01*
X141160952Y-86622380D01*
X141970476Y-87622380D02*
X141970476Y-86622380D01*
X142208571Y-86622380D01*
X142351428Y-86670000D01*
X142446666Y-86765238D01*
X142494285Y-86860476D01*
X142541904Y-87050952D01*
X142541904Y-87193809D01*
X142494285Y-87384285D01*
X142446666Y-87479523D01*
X142351428Y-87574761D01*
X142208571Y-87622380D01*
X141970476Y-87622380D01*
X143541904Y-87622380D02*
X143208571Y-87146190D01*
X142970476Y-87622380D02*
X142970476Y-86622380D01*
X143351428Y-86622380D01*
X143446666Y-86670000D01*
X143494285Y-86717619D01*
X143541904Y-86812857D01*
X143541904Y-86955714D01*
X143494285Y-87050952D01*
X143446666Y-87098571D01*
X143351428Y-87146190D01*
X142970476Y-87146190D01*
X144160952Y-86622380D02*
X144256190Y-86622380D01*
X144351428Y-86670000D01*
X144399047Y-86717619D01*
X144446666Y-86812857D01*
X144494285Y-87003333D01*
X144494285Y-87241428D01*
X144446666Y-87431904D01*
X144399047Y-87527142D01*
X144351428Y-87574761D01*
X144256190Y-87622380D01*
X144160952Y-87622380D01*
X144065714Y-87574761D01*
X144018095Y-87527142D01*
X143970476Y-87431904D01*
X143922857Y-87241428D01*
X143922857Y-87003333D01*
X143970476Y-86812857D01*
X144018095Y-86717619D01*
X144065714Y-86670000D01*
X144160952Y-86622380D01*
X144827619Y-86622380D02*
X145494285Y-86622380D01*
X145065714Y-87622380D01*
X142913333Y-93522380D02*
X142580000Y-93046190D01*
X142341904Y-93522380D02*
X142341904Y-92522380D01*
X142722857Y-92522380D01*
X142818095Y-92570000D01*
X142865714Y-92617619D01*
X142913333Y-92712857D01*
X142913333Y-92855714D01*
X142865714Y-92950952D01*
X142818095Y-92998571D01*
X142722857Y-93046190D01*
X142341904Y-93046190D01*
X143865714Y-93522380D02*
X143294285Y-93522380D01*
X143580000Y-93522380D02*
X143580000Y-92522380D01*
X143484761Y-92665238D01*
X143389523Y-92760476D01*
X143294285Y-92808095D01*
%TO.C,D2*%
X127405238Y-76120000D02*
X127310000Y-76072380D01*
X127167142Y-76072380D01*
X127024285Y-76120000D01*
X126929047Y-76215238D01*
X126881428Y-76310476D01*
X126833809Y-76500952D01*
X126833809Y-76643809D01*
X126881428Y-76834285D01*
X126929047Y-76929523D01*
X127024285Y-77024761D01*
X127167142Y-77072380D01*
X127262380Y-77072380D01*
X127405238Y-77024761D01*
X127452857Y-76977142D01*
X127452857Y-76643809D01*
X127262380Y-76643809D01*
X128452857Y-77072380D02*
X128119523Y-76596190D01*
X127881428Y-77072380D02*
X127881428Y-76072380D01*
X128262380Y-76072380D01*
X128357619Y-76120000D01*
X128405238Y-76167619D01*
X128452857Y-76262857D01*
X128452857Y-76405714D01*
X128405238Y-76500952D01*
X128357619Y-76548571D01*
X128262380Y-76596190D01*
X127881428Y-76596190D01*
X128881428Y-76548571D02*
X129214761Y-76548571D01*
X129357619Y-77072380D02*
X128881428Y-77072380D01*
X128881428Y-76072380D01*
X129357619Y-76072380D01*
X129786190Y-76548571D02*
X130119523Y-76548571D01*
X130262380Y-77072380D02*
X129786190Y-77072380D01*
X129786190Y-76072380D01*
X130262380Y-76072380D01*
X130690952Y-77072380D02*
X130690952Y-76072380D01*
X131262380Y-77072380D01*
X131262380Y-76072380D01*
X132976666Y-77072380D02*
X132500476Y-77072380D01*
X132500476Y-76072380D01*
X133310000Y-76548571D02*
X133643333Y-76548571D01*
X133786190Y-77072380D02*
X133310000Y-77072380D01*
X133310000Y-76072380D01*
X133786190Y-76072380D01*
X134214761Y-77072380D02*
X134214761Y-76072380D01*
X134452857Y-76072380D01*
X134595714Y-76120000D01*
X134690952Y-76215238D01*
X134738571Y-76310476D01*
X134786190Y-76500952D01*
X134786190Y-76643809D01*
X134738571Y-76834285D01*
X134690952Y-76929523D01*
X134595714Y-77024761D01*
X134452857Y-77072380D01*
X134214761Y-77072380D01*
%TO.C,D1*%
X134779047Y-77072380D02*
X134445714Y-76596190D01*
X134207619Y-77072380D02*
X134207619Y-76072380D01*
X134588571Y-76072380D01*
X134683809Y-76120000D01*
X134731428Y-76167619D01*
X134779047Y-76262857D01*
X134779047Y-76405714D01*
X134731428Y-76500952D01*
X134683809Y-76548571D01*
X134588571Y-76596190D01*
X134207619Y-76596190D01*
X135207619Y-76548571D02*
X135540952Y-76548571D01*
X135683809Y-77072380D02*
X135207619Y-77072380D01*
X135207619Y-76072380D01*
X135683809Y-76072380D01*
X136112380Y-77072380D02*
X136112380Y-76072380D01*
X136350476Y-76072380D01*
X136493333Y-76120000D01*
X136588571Y-76215238D01*
X136636190Y-76310476D01*
X136683809Y-76500952D01*
X136683809Y-76643809D01*
X136636190Y-76834285D01*
X136588571Y-76929523D01*
X136493333Y-77024761D01*
X136350476Y-77072380D01*
X136112380Y-77072380D01*
X138350476Y-77072380D02*
X137874285Y-77072380D01*
X137874285Y-76072380D01*
X138683809Y-76548571D02*
X139017142Y-76548571D01*
X139160000Y-77072380D02*
X138683809Y-77072380D01*
X138683809Y-76072380D01*
X139160000Y-76072380D01*
X139588571Y-77072380D02*
X139588571Y-76072380D01*
X139826666Y-76072380D01*
X139969523Y-76120000D01*
X140064761Y-76215238D01*
X140112380Y-76310476D01*
X140160000Y-76500952D01*
X140160000Y-76643809D01*
X140112380Y-76834285D01*
X140064761Y-76929523D01*
X139969523Y-77024761D01*
X139826666Y-77072380D01*
X139588571Y-77072380D01*
%TD*%
M02*
