M48
; DRILL file {KiCad (5.1.9)-1} date 03/23/21 19:32:31
; FORMAT={-:-/ absolute / metric / decimal}
; #@! TF.CreationDate,2021-03-23T19:32:31+05:30
; #@! TF.GenerationSoftware,Kicad,Pcbnew,(5.1.9)-1
FMAT,2
METRIC
T1C0.700
T2C0.800
T3C0.900
T4C1.000
%
G90
G05
T1
X124.46Y-80.01
X124.46Y-85.09
X142.24Y-80.01
X142.24Y-85.09
T2
X129.845Y-80.365
X129.845Y-82.905
X129.845Y-85.445
X129.845Y-87.985
X137.465Y-80.365
X137.465Y-82.905
X137.465Y-85.445
X137.465Y-87.985
X141.38Y-90.17
X144.78Y-90.17
T3
X129.54Y-73.66
X132.08Y-73.66
X135.89Y-73.66
X138.43Y-73.66
T4
X124.46Y-90.17
X124.46Y-92.71
T0
M30
