%TF.GenerationSoftware,KiCad,Pcbnew,(5.1.9)-1*%
%TF.CreationDate,2021-03-23T19:31:55+05:30*%
%TF.ProjectId,automatic traffic signal,6175746f-6d61-4746-9963-207472616666,rev?*%
%TF.SameCoordinates,Original*%
%TF.FileFunction,Other,User*%
%FSLAX46Y46*%
G04 Gerber Fmt 4.6, Leading zero omitted, Abs format (unit mm)*
G04 Created by KiCad (PCBNEW (5.1.9)-1) date 2021-03-23 19:31:55*
%MOMM*%
%LPD*%
G01*
G04 APERTURE LIST*
%ADD10C,0.050000*%
G04 APERTURE END LIST*
D10*
%TO.C,VCC1*%
X126260000Y-94510000D02*
X126260000Y-88360000D01*
X126260000Y-88360000D02*
X122660000Y-88360000D01*
X122660000Y-88360000D02*
X122660000Y-94510000D01*
X122660000Y-94510000D02*
X126260000Y-94510000D01*
%TO.C,U1*%
X128295001Y-78765001D02*
X128295001Y-89565001D01*
X128295001Y-89565001D02*
X138995001Y-89565001D01*
X138995001Y-89565001D02*
X138995001Y-78765001D01*
X138995001Y-78765001D02*
X128295001Y-78765001D01*
%TO.C,R3*%
X141190000Y-86040000D02*
X143290000Y-86040000D01*
X143290000Y-86040000D02*
X143290000Y-79060000D01*
X143290000Y-79060000D02*
X141190000Y-79060000D01*
X141190000Y-79060000D02*
X141190000Y-86040000D01*
%TO.C,R2*%
X123410000Y-86040000D02*
X125510000Y-86040000D01*
X125510000Y-86040000D02*
X125510000Y-79060000D01*
X125510000Y-79060000D02*
X123410000Y-79060000D01*
X123410000Y-79060000D02*
X123410000Y-86040000D01*
%TO.C,R1*%
X145910000Y-92520000D02*
X140250000Y-92520000D01*
X145910000Y-92520000D02*
X145910000Y-87820000D01*
X140250000Y-87820000D02*
X140250000Y-92520000D01*
X140250000Y-87820000D02*
X145910000Y-87820000D01*
%TO.C,D2*%
X128390000Y-71410000D02*
X128390000Y-75910000D01*
X128390000Y-75910000D02*
X133240000Y-75910000D01*
X133240000Y-75910000D02*
X133240000Y-71410000D01*
X133240000Y-71410000D02*
X128390000Y-71410000D01*
%TO.C,D1*%
X134740000Y-71410000D02*
X134740000Y-75910000D01*
X134740000Y-75910000D02*
X139590000Y-75910000D01*
X139590000Y-75910000D02*
X139590000Y-71410000D01*
X139590000Y-71410000D02*
X134740000Y-71410000D01*
%TD*%
M02*
